<svg xmlns="http://www.w3.org/2000/svg" xmlns:xlink="http://www.w3.org/1999/xlink"><symbol id="icon-logo-footer" viewBox="0 0 48 32">
<circle cx="16" cy="16" r="16" fill="#98c3e8"/>
<circle cx="32" cy="16" r="15" fill="white" stroke="#316099" stroke-width="2"/>
<path d="M38.3 23L33.38 9H29.96L25.06 23H28.04L28.88 20.48H34.46L35.3 23H38.3ZM31.68 12.18L33.6 17.9H29.76L31.68 12.18Z" fill="currentColor"/>
</symbol><symbol id="icon-logo" viewBox="0 0 48 48"><circle cx="16" cy="24" r="16" fill="currentColor"/><circle cx="32" cy="24" r="15" fill="#fff" stroke="currentColor" stroke-width="2"/><path d="M39.3 30l-4.92-14h-3.42l-4.9 14h2.98l.84-2.52h5.58L36.3 30h3zm-6.62-10.82l1.92 5.72h-3.84l1.92-5.72z" fill="currentColor"/></symbol><symbol id="icon-right-arrow" viewBox="0 0 16 16">
<path d="M8 0L6.59 1.41L12.17 7H0V9H12.17L6.59 14.59L8 16L16 8L8 0Z" fill="currentColor"/>
</symbol></svg>